<svg width="178" height="39" viewBox="0 0 178 39" fill="none" xmlns="http://www.w3.org/2000/svg">
<rect y="0.106445" width="38.3696" height="38.3696" rx="12.1943" transform="rotate(-0.158826 0 0.106445)" fill="url(#paint0_linear_77_658)"/>
<circle cx="22.125" cy="24.238" r="9.5" transform="rotate(-6.55573 22.125 24.238)" fill="white"/>
<circle cx="13.1494" cy="16.2107" r="9.5" transform="rotate(-6.55573 13.1494 16.2107)" fill="#004CB7"/>
<path d="M56.2226 12.5586C56.2226 13.9635 55.9563 15.1586 55.4237 16.1441C54.8953 17.1296 54.174 17.8824 53.2598 18.4024C52.3498 18.9182 51.3265 19.1761 50.19 19.1761C49.0452 19.1761 48.0177 18.9161 47.1077 18.3961C46.1977 17.8761 45.4785 17.1234 44.9501 16.1378C44.4217 15.1523 44.1575 13.9593 44.1575 12.5586C44.1575 11.1537 44.4217 9.95854 44.9501 8.97303C45.4785 7.98753 46.1977 7.23687 47.1077 6.72105C48.0177 6.20104 49.0452 5.94104 50.19 5.94104C51.3265 5.94104 52.3498 6.20104 53.2598 6.72105C54.174 7.23687 54.8953 7.98753 55.4237 8.97303C55.9563 9.95854 56.2226 11.1537 56.2226 12.5586ZM53.4611 12.5586C53.4611 11.6486 53.3248 10.8811 53.0522 10.2563C52.7838 9.63143 52.4043 9.15755 51.9136 8.83464C51.423 8.51173 50.8484 8.35028 50.19 8.35028C49.5316 8.35028 48.9571 8.51173 48.4665 8.83464C47.9758 9.15755 47.5942 9.63143 47.3216 10.2563C47.0532 10.8811 46.919 11.6486 46.919 12.5586C46.919 13.4686 47.0532 14.236 47.3216 14.8609C47.5942 15.4857 47.9758 15.9596 48.4665 16.2825C48.9571 16.6054 49.5316 16.7669 50.19 16.7669C50.8484 16.7669 51.423 16.6054 51.9136 16.2825C52.4043 15.9596 52.7838 15.4857 53.0522 14.8609C53.3248 14.236 53.4611 13.4686 53.4611 12.5586ZM69.5472 6.11717V19H67.1946L61.5898 10.8916H61.4954V19H58.7717V6.11717H61.162L66.7228 14.2193H66.836V6.11717H69.5472ZM72.329 19V6.11717H77.4872C78.4349 6.11717 79.2254 6.25766 79.8587 6.53863C80.4919 6.8196 80.9679 7.20961 81.2866 7.70865C81.6053 8.2035 81.7647 8.77384 81.7647 9.41965C81.7647 9.92289 81.664 10.3653 81.4627 10.7469C81.2614 11.1244 80.9847 11.4347 80.6324 11.6779C80.2843 11.917 79.8859 12.0868 79.4372 12.1874V12.3133C79.9279 12.3342 80.3871 12.4726 80.8148 12.7284C81.2468 12.9842 81.5969 13.3428 81.8653 13.8041C82.1337 14.2612 82.2679 14.8064 82.2679 15.4396C82.2679 16.1232 82.0981 16.7333 81.7584 17.2701C81.4229 17.8027 80.926 18.2242 80.2676 18.5345C79.6092 18.8448 78.7977 19 77.8332 19H72.329ZM75.0528 16.7732H77.2733C78.0324 16.7732 78.5859 16.6285 78.934 16.3391C79.2821 16.0456 79.4561 15.6556 79.4561 15.1691C79.4561 14.8127 79.3701 14.4981 79.1982 14.2256C79.0262 13.953 78.7809 13.7391 78.4622 13.5839C78.1477 13.4288 77.7723 13.3512 77.3362 13.3512H75.0528V16.7732ZM75.0528 11.5081H77.072C77.4452 11.5081 77.7765 11.4431 78.0659 11.3131C78.3595 11.1789 78.5901 10.9902 78.7578 10.7469C78.9298 10.5037 79.0158 10.2122 79.0158 9.87257C79.0158 9.40707 78.8501 9.03174 78.5188 8.74658C78.1917 8.46141 77.7262 8.31883 77.1223 8.31883H75.0528V11.5081ZM96.4103 12.5586C96.4103 13.9635 96.144 15.1586 95.6114 16.1441C95.083 17.1296 94.3617 17.8824 93.4475 18.4024C92.5375 18.9182 91.5142 19.1761 90.3777 19.1761C89.2329 19.1761 88.2054 18.9161 87.2954 18.3961C86.3854 17.8761 85.6662 17.1234 85.1378 16.1378C84.6094 15.1523 84.3452 13.9593 84.3452 12.5586C84.3452 11.1537 84.6094 9.95854 85.1378 8.97303C85.6662 7.98753 86.3854 7.23687 87.2954 6.72105C88.2054 6.20104 89.2329 5.94104 90.3777 5.94104C91.5142 5.94104 92.5375 6.20104 93.4475 6.72105C94.3617 7.23687 95.083 7.98753 95.6114 8.97303C96.144 9.95854 96.4103 11.1537 96.4103 12.5586ZM93.6488 12.5586C93.6488 11.6486 93.5125 10.8811 93.2399 10.2563C92.9715 9.63143 92.592 9.15755 92.1013 8.83464C91.6107 8.51173 91.0361 8.35028 90.3777 8.35028C89.7193 8.35028 89.1448 8.51173 88.6542 8.83464C88.1635 9.15755 87.7819 9.63143 87.5093 10.2563C87.2409 10.8811 87.1067 11.6486 87.1067 12.5586C87.1067 13.4686 87.2409 14.236 87.5093 14.8609C87.7819 15.4857 88.1635 15.9596 88.6542 16.2825C89.1448 16.6054 89.7193 16.7669 90.3777 16.7669C91.0361 16.7669 91.6107 16.6054 92.1013 16.2825C92.592 15.9596 92.9715 15.4857 93.2399 14.8609C93.5125 14.236 93.6488 13.4686 93.6488 12.5586ZM100.453 19H97.5346L101.982 6.11717H105.492L109.933 19H107.014L103.787 9.0611H103.687L100.453 19ZM100.271 13.9362H107.165V16.0624H100.271V13.9362ZM112.015 19V6.11717H117.098C118.071 6.11717 118.901 6.29121 119.589 6.63928C120.281 6.98315 120.807 7.47171 121.168 8.10495C121.532 8.734 121.715 9.47417 121.715 10.3255C121.715 11.181 121.53 11.917 121.161 12.5334C120.792 13.1457 120.258 13.6154 119.557 13.9425C118.861 14.2696 118.018 14.4331 117.029 14.4331H113.625V12.2441H116.588C117.108 12.2441 117.54 12.1728 117.884 12.0302C118.228 11.8876 118.484 11.6737 118.651 11.3886C118.823 11.1034 118.909 10.749 118.909 10.3255C118.909 9.89773 118.823 9.53708 118.651 9.24352C118.484 8.94997 118.226 8.7277 117.878 8.57673C117.534 8.42157 117.1 8.34399 116.576 8.34399H114.739V19H112.015ZM118.972 13.1373L122.174 19H119.167L116.035 13.1373H118.972ZM128.738 19H124.171V6.11717H128.776C130.072 6.11717 131.187 6.37508 132.122 6.8909C133.058 7.40252 133.777 8.1385 134.28 9.09884C134.787 10.0592 135.041 11.2082 135.041 12.546C135.041 13.888 134.787 15.0412 134.28 16.0057C133.777 16.9703 133.053 17.7105 132.11 18.2263C131.17 18.7421 130.046 19 128.738 19ZM126.895 16.6662H128.625C129.43 16.6662 130.107 16.5237 130.657 16.2385C131.21 15.9491 131.625 15.5025 131.902 14.8986C132.183 14.2906 132.324 13.5063 132.324 12.546C132.324 11.5941 132.183 10.8161 131.902 10.2122C131.625 9.60837 131.212 9.16384 130.663 8.87868C130.114 8.59351 129.436 8.45093 128.631 8.45093H126.895V16.6662ZM137.59 19V6.11717H146.271V8.36286H140.314V11.4326H145.824V13.6783H140.314V16.7543H146.296V19H137.59ZM153.535 19H148.968V6.11717H153.572C154.868 6.11717 155.984 6.37508 156.919 6.8909C157.854 7.40252 158.573 8.1385 159.077 9.09884C159.584 10.0592 159.838 11.2082 159.838 12.546C159.838 13.888 159.584 15.0412 159.077 16.0057C158.573 16.9703 157.85 17.7105 156.906 18.2263C155.967 18.7421 154.843 19 153.535 19ZM151.692 16.6662H153.422C154.227 16.6662 154.904 16.5237 155.453 16.2385C156.007 15.9491 156.422 15.5025 156.699 14.8986C156.98 14.2906 157.12 13.5063 157.12 12.546C157.12 11.5941 156.98 10.8161 156.699 10.2122C156.422 9.60837 156.009 9.16384 155.46 8.87868C154.91 8.59351 154.233 8.45093 153.428 8.45093H151.692V16.6662Z" fill="#272727"/>
<path d="M44.2732 35.4545V26.4545H45.2448V27.4943H45.3641C45.438 27.3807 45.5402 27.2358 45.6709 27.0597C45.8044 26.8807 45.9948 26.7216 46.2419 26.5824C46.4919 26.4403 46.83 26.3693 47.2561 26.3693C47.8073 26.3693 48.2931 26.5071 48.7135 26.7827C49.134 27.0582 49.4621 27.4489 49.6979 27.9545C49.9337 28.4602 50.0516 29.0568 50.0516 29.7443C50.0516 30.4375 49.9337 31.0384 49.6979 31.5469C49.4621 32.0526 49.1354 32.4446 48.7178 32.723C48.3002 32.9986 47.8186 33.1364 47.2732 33.1364C46.8527 33.1364 46.5161 33.0668 46.2632 32.9276C46.0104 32.7855 45.8158 32.625 45.6794 32.446C45.5431 32.2642 45.438 32.1136 45.3641 31.9943H45.2789V35.4545H44.2732ZM45.2618 29.7273C45.2618 30.2216 45.3343 30.6577 45.4792 31.0355C45.624 31.4105 45.8357 31.7045 46.1141 31.9176C46.3925 32.1278 46.7334 32.233 47.1368 32.233C47.5573 32.233 47.9081 32.1222 48.1894 31.9006C48.4735 31.6761 48.6865 31.375 48.8286 30.9972C48.9735 30.6165 49.0459 30.1932 49.0459 29.7273C49.0459 29.267 48.9749 28.8523 48.8329 28.483C48.6936 28.1108 48.482 27.8168 48.1979 27.6009C47.9167 27.3821 47.563 27.2727 47.1368 27.2727C46.7277 27.2727 46.384 27.3764 46.1056 27.5838C45.8272 27.7884 45.6169 28.0753 45.4749 28.4446C45.3329 28.8111 45.2618 29.2386 45.2618 29.7273ZM54.3648 33.1364C53.7739 33.1364 53.2554 32.9957 52.8094 32.7145C52.3662 32.4332 52.0196 32.0398 51.7696 31.5341C51.5225 31.0284 51.3989 30.4375 51.3989 29.7614C51.3989 29.0795 51.5225 28.4844 51.7696 27.9759C52.0196 27.4673 52.3662 27.0724 52.8094 26.7912C53.2554 26.5099 53.7739 26.3693 54.3648 26.3693C54.9557 26.3693 55.4727 26.5099 55.9159 26.7912C56.3619 27.0724 56.7085 27.4673 56.9557 27.9759C57.2057 28.4844 57.3307 29.0795 57.3307 29.7614C57.3307 30.4375 57.2057 31.0284 56.9557 31.5341C56.7085 32.0398 56.3619 32.4332 55.9159 32.7145C55.4727 32.9957 54.9557 33.1364 54.3648 33.1364ZM54.3648 32.233C54.8136 32.233 55.183 32.1179 55.4727 31.8878C55.7625 31.6577 55.977 31.3551 56.1162 30.9801C56.2554 30.6051 56.325 30.1989 56.325 29.7614C56.325 29.3239 56.2554 28.9162 56.1162 28.5384C55.977 28.1605 55.7625 27.8551 55.4727 27.6222C55.183 27.3892 54.8136 27.2727 54.3648 27.2727C53.9159 27.2727 53.5466 27.3892 53.2568 27.6222C52.9671 27.8551 52.7526 28.1605 52.6134 28.5384C52.4742 28.9162 52.4046 29.3239 52.4046 29.7614C52.4046 30.1989 52.4742 30.6051 52.6134 30.9801C52.7526 31.3551 52.9671 31.6577 53.2568 31.8878C53.5466 32.1179 53.9159 32.233 54.3648 32.233ZM60.2461 33L58.2518 26.4545H59.3086L60.7234 31.4659H60.7916L62.1893 26.4545H63.2632L64.6439 31.4489H64.7121L66.1268 26.4545H67.1836L65.1893 33H64.2007L62.7689 27.9716H62.6666L61.2348 33H60.2461ZM71.1549 33.1364C70.5242 33.1364 69.9801 32.9972 69.5228 32.7188C69.0682 32.4375 68.7174 32.0455 68.4702 31.5426C68.2259 31.0369 68.1037 30.4489 68.1037 29.7784C68.1037 29.108 68.2259 28.517 68.4702 28.0057C68.7174 27.4915 69.0611 27.0909 69.5014 26.804C69.9446 26.5142 70.4617 26.3693 71.0526 26.3693C71.3935 26.3693 71.7301 26.4261 72.0625 26.5398C72.3949 26.6534 72.6975 26.8381 72.9702 27.0938C73.2429 27.3466 73.4603 27.6818 73.6222 28.0994C73.7841 28.517 73.8651 29.0312 73.8651 29.642V30.0682H68.8196V29.1989H72.8424C72.8424 28.8295 72.7685 28.5 72.6208 28.2102C72.4759 27.9205 72.2685 27.6918 71.9986 27.5241C71.7316 27.3565 71.4162 27.2727 71.0526 27.2727C70.652 27.2727 70.3054 27.3722 70.0128 27.571C69.723 27.767 69.5 28.0227 69.3438 28.3381C69.1875 28.6534 69.1094 28.9915 69.1094 29.3523V29.9318C69.1094 30.4261 69.1946 30.8452 69.3651 31.1889C69.5384 31.5298 69.7784 31.7898 70.0853 31.9688C70.3921 32.1449 70.7486 32.233 71.1549 32.233C71.4191 32.233 71.6577 32.196 71.8708 32.1222C72.0867 32.0455 72.2728 31.9318 72.429 31.7812C72.5853 31.6278 72.706 31.4375 72.7912 31.2102L73.7628 31.483C73.6605 31.8125 73.4887 32.1023 73.2472 32.3523C73.0057 32.5994 72.7074 32.7926 72.3523 32.9318C71.9972 33.0682 71.598 33.1364 71.1549 33.1364ZM75.5149 33V26.4545H76.4865V27.4432H76.5547C76.674 27.1193 76.8899 26.8565 77.2024 26.6548C77.5149 26.4531 77.8672 26.3523 78.2592 26.3523C78.3331 26.3523 78.4254 26.3537 78.5362 26.3565C78.647 26.3594 78.7308 26.3636 78.7876 26.3693V27.392C78.7535 27.3835 78.6754 27.3707 78.5533 27.3537C78.4339 27.3338 78.3075 27.3239 78.174 27.3239C77.8558 27.3239 77.5717 27.3906 77.3217 27.5241C77.0746 27.6548 76.8785 27.8366 76.7337 28.0696C76.5916 28.2997 76.5206 28.5625 76.5206 28.858V33H75.5149ZM82.6449 33.1364C82.0142 33.1364 81.4701 32.9972 81.0128 32.7188C80.5582 32.4375 80.2074 32.0455 79.9602 31.5426C79.7159 31.0369 79.5937 30.4489 79.5937 29.7784C79.5937 29.108 79.7159 28.517 79.9602 28.0057C80.2074 27.4915 80.5511 27.0909 80.9914 26.804C81.4346 26.5142 81.9517 26.3693 82.5426 26.3693C82.8835 26.3693 83.2201 26.4261 83.5525 26.5398C83.8849 26.6534 84.1875 26.8381 84.4602 27.0938C84.7329 27.3466 84.9503 27.6818 85.1122 28.0994C85.2741 28.517 85.3551 29.0312 85.3551 29.642V30.0682H80.3096V29.1989H84.3324C84.3324 28.8295 84.2585 28.5 84.1108 28.2102C83.9659 27.9205 83.7585 27.6918 83.4886 27.5241C83.2216 27.3565 82.9062 27.2727 82.5426 27.2727C82.142 27.2727 81.7954 27.3722 81.5028 27.571C81.213 27.767 80.99 28.0227 80.8338 28.3381C80.6775 28.6534 80.5994 28.9915 80.5994 29.3523V29.9318C80.5994 30.4261 80.6846 30.8452 80.8551 31.1889C81.0284 31.5298 81.2684 31.7898 81.5753 31.9688C81.8821 32.1449 82.2386 32.233 82.6449 32.233C82.9091 32.233 83.1477 32.196 83.3608 32.1222C83.5767 32.0455 83.7628 31.9318 83.919 31.7812C84.0753 31.6278 84.196 31.4375 84.2812 31.2102L85.2528 31.483C85.1505 31.8125 84.9787 32.1023 84.7372 32.3523C84.4957 32.5994 84.1974 32.7926 83.8423 32.9318C83.4872 33.0682 83.088 33.1364 82.6449 33.1364ZM89.4765 33.1364C88.931 33.1364 88.4495 32.9986 88.0319 32.723C87.6143 32.4446 87.2876 32.0526 87.0518 31.5469C86.816 31.0384 86.6981 30.4375 86.6981 29.7443C86.6981 29.0568 86.816 28.4602 87.0518 27.9545C87.2876 27.4489 87.6157 27.0582 88.0362 26.7827C88.4566 26.5071 88.9424 26.3693 89.4935 26.3693C89.9197 26.3693 90.2563 26.4403 90.5035 26.5824C90.7535 26.7216 90.9438 26.8807 91.0745 27.0597C91.208 27.2358 91.3117 27.3807 91.3856 27.4943H91.4708V24.2727H92.4765V33H91.5049V31.9943H91.3856C91.3117 32.1136 91.2066 32.2642 91.0703 32.446C90.9339 32.625 90.7393 32.7855 90.4864 32.9276C90.2336 33.0668 89.897 33.1364 89.4765 33.1364ZM89.6129 32.233C90.0163 32.233 90.3572 32.1278 90.6356 31.9176C90.914 31.7045 91.1257 31.4105 91.2705 31.0355C91.4154 30.6577 91.4879 30.2216 91.4879 29.7273C91.4879 29.2386 91.4168 28.8111 91.2748 28.4446C91.1328 28.0753 90.9225 27.7884 90.6441 27.5838C90.3657 27.3764 90.022 27.2727 89.6129 27.2727C89.1867 27.2727 88.8316 27.3821 88.5475 27.6009C88.2663 27.8168 88.0546 28.1108 87.9126 28.483C87.7734 28.8523 87.7038 29.267 87.7038 29.7273C87.7038 30.1932 87.7748 30.6165 87.9168 30.9972C88.0617 31.375 88.2748 31.6761 88.556 31.9006C88.8401 32.1222 89.1924 32.233 89.6129 32.233ZM98.2094 33V24.2727H99.2151V27.4943H99.3003C99.3742 27.3807 99.4764 27.2358 99.6071 27.0597C99.7406 26.8807 99.931 26.7216 100.178 26.5824C100.428 26.4403 100.766 26.3693 101.192 26.3693C101.743 26.3693 102.229 26.5071 102.65 26.7827C103.07 27.0582 103.398 27.4489 103.634 27.9545C103.87 28.4602 103.988 29.0568 103.988 29.7443C103.988 30.4375 103.87 31.0384 103.634 31.5469C103.398 32.0526 103.072 32.4446 102.654 32.723C102.236 32.9986 101.755 33.1364 101.209 33.1364C100.789 33.1364 100.452 33.0668 100.199 32.9276C99.9466 32.7855 99.752 32.625 99.6156 32.446C99.4793 32.2642 99.3742 32.1136 99.3003 31.9943H99.181V33H98.2094ZM99.198 29.7273C99.198 30.2216 99.2705 30.6577 99.4154 31.0355C99.5603 31.4105 99.7719 31.7045 100.05 31.9176C100.329 32.1278 100.67 32.233 101.073 32.233C101.493 32.233 101.844 32.1222 102.126 31.9006C102.41 31.6761 102.623 31.375 102.765 30.9972C102.91 30.6165 102.982 30.1932 102.982 29.7273C102.982 29.267 102.911 28.8523 102.769 28.483C102.63 28.1108 102.418 27.8168 102.134 27.6009C101.853 27.3821 101.499 27.2727 101.073 27.2727C100.664 27.2727 100.32 27.3764 100.042 27.5838C99.7634 27.7884 99.5531 28.0753 99.4111 28.4446C99.2691 28.8111 99.198 29.2386 99.198 29.7273ZM106.06 35.4545C105.889 35.4545 105.737 35.4403 105.604 35.4119C105.47 35.3864 105.378 35.3608 105.327 35.3352L105.582 34.4489C105.827 34.5114 106.042 34.5341 106.23 34.517C106.417 34.5 106.584 34.4162 106.729 34.2656C106.876 34.1179 107.011 33.8778 107.133 33.5455L107.321 33.0341L104.9 26.4545H105.991L107.798 31.6705H107.866L109.673 26.4545H110.764L107.986 33.9545C107.861 34.2926 107.706 34.5724 107.521 34.794C107.337 35.0185 107.122 35.1847 106.878 35.2926C106.636 35.4006 106.363 35.4545 106.06 35.4545ZM118.366 33.1364C117.752 33.1364 117.224 32.9915 116.78 32.7017C116.337 32.4119 115.996 32.0128 115.758 31.5043C115.519 30.9957 115.4 30.4148 115.4 29.7614C115.4 29.0966 115.522 28.5099 115.766 28.0014C116.013 27.4901 116.357 27.0909 116.797 26.804C117.241 26.5142 117.758 26.3693 118.349 26.3693C118.809 26.3693 119.224 26.4545 119.593 26.625C119.962 26.7955 120.265 27.0341 120.501 27.3409C120.736 27.6477 120.883 28.0057 120.939 28.4148H119.934C119.857 28.1165 119.687 27.8523 119.422 27.6222C119.161 27.3892 118.809 27.2727 118.366 27.2727C117.974 27.2727 117.63 27.375 117.334 27.5795C117.042 27.7812 116.813 28.0668 116.648 28.4361C116.486 28.8026 116.405 29.233 116.405 29.7273C116.405 30.233 116.485 30.6733 116.644 31.0483C116.806 31.4233 117.033 31.7145 117.326 31.9219C117.621 32.1293 117.968 32.233 118.366 32.233C118.627 32.233 118.864 32.1875 119.077 32.0966C119.29 32.0057 119.471 31.875 119.618 31.7045C119.766 31.5341 119.871 31.3295 119.934 31.0909H120.939C120.883 31.4773 120.742 31.8253 120.518 32.1349C120.296 32.4418 120.002 32.6861 119.635 32.8679C119.272 33.0469 118.849 33.1364 118.366 33.1364ZM122.53 33V26.4545H123.501V27.4432H123.569C123.689 27.1193 123.905 26.8565 124.217 26.6548C124.53 26.4531 124.882 26.3523 125.274 26.3523C125.348 26.3523 125.44 26.3537 125.551 26.3565C125.662 26.3594 125.746 26.3636 125.802 26.3693V27.392C125.768 27.3835 125.69 27.3707 125.568 27.3537C125.449 27.3338 125.322 27.3239 125.189 27.3239C124.871 27.3239 124.586 27.3906 124.336 27.5241C124.089 27.6548 123.893 27.8366 123.748 28.0696C123.606 28.2997 123.535 28.5625 123.535 28.858V33H122.53ZM127.114 33V26.4545H128.086V27.4773H128.171C128.308 27.1278 128.528 26.8565 128.832 26.6634C129.136 26.4673 129.501 26.3693 129.927 26.3693C130.359 26.3693 130.718 26.4673 131.005 26.6634C131.295 26.8565 131.521 27.1278 131.683 27.4773H131.751C131.918 27.1392 132.17 26.8707 132.505 26.6719C132.84 26.4702 133.242 26.3693 133.711 26.3693C134.296 26.3693 134.775 26.5526 135.147 26.919C135.519 27.2827 135.705 27.8494 135.705 28.6193V33H134.7V28.6193C134.7 28.1364 134.568 27.7912 134.303 27.5838C134.039 27.3764 133.728 27.2727 133.37 27.2727C132.91 27.2727 132.553 27.4119 132.301 27.6903C132.048 27.9659 131.921 28.3153 131.921 28.7386V33H130.899V28.517C130.899 28.1449 130.778 27.8452 130.536 27.6179C130.295 27.3878 129.984 27.2727 129.603 27.2727C129.342 27.2727 129.097 27.3423 128.87 27.4815C128.646 27.6207 128.464 27.8139 128.325 28.0611C128.188 28.3054 128.12 28.5881 128.12 28.9091V33H127.114ZM137.664 33V26.4545H138.636V27.4432H138.704C138.823 27.1193 139.039 26.8565 139.352 26.6548C139.664 26.4531 140.016 26.3523 140.408 26.3523C140.482 26.3523 140.575 26.3537 140.685 26.3565C140.796 26.3594 140.88 26.3636 140.937 26.3693V27.392C140.903 27.3835 140.825 27.3707 140.702 27.3537C140.583 27.3338 140.457 27.3239 140.323 27.3239C140.005 27.3239 139.721 27.3906 139.471 27.5241C139.224 27.6548 139.028 27.8366 138.883 28.0696C138.741 28.2997 138.67 28.5625 138.67 28.858V33H137.664ZM144.794 33.1364C144.163 33.1364 143.619 32.9972 143.162 32.7188C142.707 32.4375 142.357 32.0455 142.109 31.5426C141.865 31.0369 141.743 30.4489 141.743 29.7784C141.743 29.108 141.865 28.517 142.109 28.0057C142.357 27.4915 142.7 27.0909 143.141 26.804C143.584 26.5142 144.101 26.3693 144.692 26.3693C145.033 26.3693 145.369 26.4261 145.702 26.5398C146.034 26.6534 146.337 26.8381 146.609 27.0938C146.882 27.3466 147.099 27.6818 147.261 28.0994C147.423 28.517 147.504 29.0312 147.504 29.642V30.0682H142.459V29.1989H146.482C146.482 28.8295 146.408 28.5 146.26 28.2102C146.115 27.9205 145.908 27.6918 145.638 27.5241C145.371 27.3565 145.055 27.2727 144.692 27.2727C144.291 27.2727 143.945 27.3722 143.652 27.571C143.362 27.767 143.139 28.0227 142.983 28.3381C142.827 28.6534 142.749 28.9915 142.749 29.3523V29.9318C142.749 30.4261 142.834 30.8452 143.004 31.1889C143.178 31.5298 143.418 31.7898 143.724 31.9688C144.031 32.1449 144.388 32.233 144.794 32.233C145.058 32.233 145.297 32.196 145.51 32.1222C145.726 32.0455 145.912 31.9318 146.068 31.7812C146.224 31.6278 146.345 31.4375 146.43 31.2102L147.402 31.483C147.3 31.8125 147.128 32.1023 146.886 32.3523C146.645 32.5994 146.347 32.7926 145.992 32.9318C145.636 33.0682 145.237 33.1364 144.794 33.1364ZM152.069 26.4545V27.3068H148.54V26.4545H152.069ZM149.597 33V25.5511C149.597 25.1761 149.685 24.8636 149.862 24.6136C150.038 24.3636 150.266 24.1761 150.548 24.0511C150.829 23.9261 151.126 23.8636 151.438 23.8636C151.685 23.8636 151.887 23.8835 152.043 23.9233C152.2 23.9631 152.316 24 152.393 24.0341L152.103 24.9034C152.052 24.8864 151.981 24.8651 151.89 24.8395C151.802 24.8139 151.685 24.8011 151.54 24.8011C151.208 24.8011 150.968 24.8849 150.82 25.0526C150.675 25.2202 150.603 25.4659 150.603 25.7898V33H149.597ZM153.598 33V26.4545H154.57V27.4432H154.638C154.757 27.1193 154.973 26.8565 155.286 26.6548C155.598 26.4531 155.951 26.3523 156.343 26.3523C156.417 26.3523 156.509 26.3537 156.62 26.3565C156.73 26.3594 156.814 26.3636 156.871 26.3693V27.392C156.837 27.3835 156.759 27.3707 156.637 27.3537C156.517 27.3338 156.391 27.3239 156.257 27.3239C155.939 27.3239 155.655 27.3906 155.405 27.5241C155.158 27.6548 154.962 27.8366 154.817 28.0696C154.675 28.2997 154.604 28.5625 154.604 28.858V33H153.598ZM160.728 33.1364C160.098 33.1364 159.554 32.9972 159.096 32.7188C158.642 32.4375 158.291 32.0455 158.044 31.5426C157.799 31.0369 157.677 30.4489 157.677 29.7784C157.677 29.108 157.799 28.517 158.044 28.0057C158.291 27.4915 158.635 27.0909 159.075 26.804C159.518 26.5142 160.035 26.3693 160.626 26.3693C160.967 26.3693 161.304 26.4261 161.636 26.5398C161.968 26.6534 162.271 26.8381 162.544 27.0938C162.816 27.3466 163.034 27.6818 163.196 28.0994C163.358 28.517 163.439 29.0312 163.439 29.642V30.0682H158.393V29.1989H162.416C162.416 28.8295 162.342 28.5 162.194 28.2102C162.049 27.9205 161.842 27.6918 161.572 27.5241C161.305 27.3565 160.99 27.2727 160.626 27.2727C160.225 27.2727 159.879 27.3722 159.586 27.571C159.296 27.767 159.073 28.0227 158.917 28.3381C158.761 28.6534 158.683 28.9915 158.683 29.3523V29.9318C158.683 30.4261 158.768 30.8452 158.939 31.1889C159.112 31.5298 159.352 31.7898 159.659 31.9688C159.966 32.1449 160.322 32.233 160.728 32.233C160.992 32.233 161.231 32.196 161.444 32.1222C161.66 32.0455 161.846 31.9318 162.002 31.7812C162.159 31.6278 162.279 31.4375 162.365 31.2102L163.336 31.483C163.234 31.8125 163.062 32.1023 162.821 32.3523C162.579 32.5994 162.281 32.7926 161.926 32.9318C161.571 33.0682 161.171 33.1364 160.728 33.1364ZM169.725 27.9205L168.821 28.1761C168.764 28.0256 168.681 27.8793 168.57 27.7372C168.462 27.5923 168.314 27.473 168.127 27.3793C167.939 27.2855 167.699 27.2386 167.407 27.2386C167.006 27.2386 166.672 27.331 166.405 27.5156C166.141 27.6974 166.009 27.929 166.009 28.2102C166.009 28.4602 166.1 28.6577 166.282 28.8026C166.463 28.9474 166.747 29.0682 167.134 29.1648L168.105 29.4034C168.691 29.5455 169.127 29.7628 169.414 30.0554C169.701 30.3452 169.844 30.7187 169.844 31.1761C169.844 31.5511 169.736 31.8864 169.52 32.1818C169.307 32.4773 169.009 32.7102 168.625 32.8807C168.242 33.0511 167.796 33.1364 167.287 33.1364C166.62 33.1364 166.067 32.9915 165.63 32.7017C165.192 32.4119 164.915 31.9886 164.799 31.4318L165.753 31.1932C165.844 31.5455 166.016 31.8097 166.269 31.9858C166.524 32.1619 166.858 32.25 167.27 32.25C167.739 32.25 168.111 32.1506 168.387 31.9517C168.665 31.75 168.804 31.5085 168.804 31.2273C168.804 31 168.725 30.8097 168.566 30.6562C168.407 30.5 168.162 30.3835 167.833 30.3068L166.742 30.0511C166.142 29.9091 165.702 29.6889 165.421 29.3906C165.142 29.0895 165.003 28.7131 165.003 28.2614C165.003 27.892 165.107 27.5653 165.314 27.2812C165.524 26.9972 165.81 26.7741 166.171 26.6122C166.534 26.4503 166.946 26.3693 167.407 26.3693C168.054 26.3693 168.563 26.5114 168.932 26.7955C169.304 27.0795 169.568 27.4545 169.725 27.9205ZM172.484 29.0625V33H171.478V24.2727H172.484V27.4773H172.569C172.722 27.1392 172.952 26.8707 173.259 26.6719C173.569 26.4702 173.981 26.3693 174.495 26.3693C174.941 26.3693 175.332 26.4588 175.667 26.6378C176.002 26.8139 176.262 27.0852 176.447 27.4517C176.634 27.8153 176.728 28.2784 176.728 28.8409V33H175.722V28.9091C175.722 28.3892 175.587 27.9872 175.317 27.7031C175.05 27.4162 174.68 27.2727 174.205 27.2727C173.876 27.2727 173.58 27.3423 173.319 27.4815C173.06 27.6207 172.856 27.8239 172.705 28.0909C172.557 28.358 172.484 28.6818 172.484 29.0625Z" fill="#272727"/>
<defs>
<linearGradient id="paint0_linear_77_658" x1="8.39335" y1="7.30074" x2="36.2113" y2="38.476" gradientUnits="userSpaceOnUse">
<stop stop-color="#287AFF"/>
<stop offset="0.322115" stop-color="#5294FF"/>
<stop offset="0.634615" stop-color="#A1C5FF"/>
<stop offset="0.859232" stop-color="#B9D4FF"/>
<stop offset="1" stop-color="#8AB7FF"/>
</linearGradient>
</defs>
</svg>
